<?xml version="1.0" standalone="no"?>
<!DOCTYPE svg PUBLIC "-//W3C//DTD SVG 20010904//EN"
 "http://www.w3.org/TR/2001/REC-SVG-20010904/DTD/svg10.dtd">
<svg version="1.0" xmlns="http://www.w3.org/2000/svg"
 width="1000.000000pt" height="1000.000000pt" viewBox="0 0 1000.000000 1000.000000"
 preserveAspectRatio="xMidYMid meet">
<metadata>
Created by potrace 1.11, written by Peter Selinger 2001-2013
</metadata>
<g transform="translate(0.000000,1000.000000) scale(0.100000,-0.100000)"
fill="#000000" stroke="none">
<path d="M2319 9996 c-2 -2 -26 -7 -54 -9 -45 -5 -94 -11 -165 -21 -14 -2 -32
-6 -40 -9 -8 -3 -46 -12 -85 -20 -178 -38 -390 -115 -607 -221 -84 -42 -166
-85 -183 -96 -16 -11 -37 -23 -45 -27 -28 -13 -125 -77 -215 -141 -271 -195
-495 -449 -651 -739 -110 -204 -211 -496 -239 -685 -12 -84 -15 -104 -22 -128
-10 -34 -15 -5740 -5 -5740 4 0 8 -10 9 -22 1 -29 12 -98 18 -118 2 -8 7 -33
11 -54 3 -22 10 -50 15 -64 5 -14 7 -27 4 -30 -2 -3 0 -11 6 -19 6 -7 9 -13 6
-13 -8 0 72 -231 85 -247 6 -7 8 -13 5 -13 -12 0 124 -282 176 -365 153 -245
311 -435 523 -626 46 -41 228 -179 237 -179 3 0 25 -13 49 -29 65 -44 311
-165 418 -206 143 -55 269 -94 353 -109 15 -3 35 -7 45 -10 9 -3 35 -8 57 -11
22 -4 52 -8 68 -11 78 -12 96 -15 137 -18 25 -2 50 -4 55 -6 6 -1 22 -2 37 -1
l28 1 2 758 c3 749 3 757 23 757 20 0 20 -8 23 -754 2 -589 5 -757 15 -763 6
-4 906 -8 2000 -8 l1987 0 0 3318 0 3319 -37 16 c-21 8 -103 45 -183 82 -80
36 -190 87 -245 112 -55 25 -147 67 -205 93 -58 27 -186 85 -285 130 -99 45
-227 103 -285 130 -58 27 -181 83 -275 125 -172 77 -281 127 -500 228 -66 30
-165 75 -220 100 -55 25 -156 71 -225 102 -69 31 -192 88 -275 125 -82 37
-206 94 -275 125 -222 102 -638 291 -780 355 -58 26 -124 57 -147 68 -23 12
-47 22 -53 22 -7 0 -11 -460 -12 -1457 -3 -1450 -3 -1458 -23 -1458 -20 0 -20
8 -23 1483 l-2 1482 21 0 c11 0 78 -18 147 -39 127 -40 328 -101 737 -225 121
-37 306 -94 410 -125 105 -32 282 -86 395 -121 113 -34 291 -88 395 -120 558
-170 894 -273 1230 -375 121 -36 306 -93 410 -125 176 -54 352 -107 810 -246
99 -30 266 -81 370 -113 105 -32 225 -69 268 -81 l77 -23 0 -3448 0 -3449 28
-1 c15 -1 32 0 37 1 12 4 41 7 194 25 30 3 59 9 65 12 6 4 17 8 26 9 65 10 94
16 155 35 39 11 93 27 120 34 28 8 59 19 70 24 11 6 63 27 115 47 213 83 436
207 630 352 149 112 421 383 454 453 5 10 12 19 16 19 11 0 137 198 193 301
87 162 193 425 212 527 6 34 10 54 25 117 6 28 13 68 16 90 7 60 9 74 17 81
10 10 8 5680 -2 5706 -7 19 -27 127 -36 203 -2 11 -8 40 -15 65 -7 25 -13 50
-15 55 -16 74 -58 198 -101 298 -17 42 -30 77 -27 77 3 0 1 6 -5 13 -5 6 -38
65 -72 130 -53 103 -87 161 -117 203 -5 5 -12 17 -18 26 -24 37 -95 137 -107
149 -7 8 -31 37 -52 64 -39 49 -234 247 -291 295 -176 148 -444 307 -655 389
-121 47 -318 111 -365 117 -22 4 -48 10 -57 15 -10 6 -18 8 -18 5 0 -2 -26 2
-58 9 -56 13 -138 25 -194 28 -16 1 -28 5 -28 9 0 8 -5433 11 -5441 4z m79
-6461 c1 -1115 -1 -1481 -10 -1486 -39 -24 -38 -60 -38 1480 0 813 3 1481 7
1485 4 4 14 5 23 4 13 -3 15 -156 18 -1483z"/>
<path d="M9992 870 c0 -14 2 -19 5 -12 2 6 2 18 0 25 -3 6 -5 1 -5 -13z"/>
<path d="M9991 824 c0 -11 3 -14 6 -6 3 7 2 16 -1 19 -3 4 -6 -2 -5 -13z"/>
</g>
</svg>
